<?xml version="1.0" encoding="UTF-8" standalone="no"?>
<!-- Created with Inkscape (http://www.inkscape.org/) -->

<svg
   width="8.04in"
   height="1.7in"
   viewBox="0 0 204.21598 43.180002"
   version="1.1"
   id="svg5"
   inkscape:version="1.2.2 (732a01da63, 2022-12-09)"
   inkscape:export-filename="..\..\..\..\..\LTR-1A.png"
   inkscape:export-xdpi="600"
   inkscape:export-ydpi="600"
   sodipodi:docname="LTR_Title.svg"
   xmlns:inkscape="http://www.inkscape.org/namespaces/inkscape"
   xmlns:sodipodi="http://sodipodi.sourceforge.net/DTD/sodipodi-0.dtd"
   xmlns="http://www.w3.org/2000/svg"
   xmlns:svg="http://www.w3.org/2000/svg">
  <sodipodi:namedview
     id="namedview7"
     pagecolor="#ffffff"
     bordercolor="#111111"
     borderopacity="1"
     inkscape:pageshadow="0"
     inkscape:pageopacity="0"
     inkscape:pagecheckerboard="1"
     inkscape:document-units="in"
     showgrid="false"
     units="in"
     showguides="true"
     inkscape:guide-bbox="true"
     inkscape:showpageshadow="0"
     inkscape:deskcolor="#d1d1d1"
     inkscape:zoom="1.065"
     inkscape:cx="407.98122"
     inkscape:cy="119.24883"
     inkscape:window-width="1346"
     inkscape:window-height="1041"
     inkscape:window-x="62"
     inkscape:window-y="166"
     inkscape:window-maximized="0"
     inkscape:current-layer="layer1"
     showborder="true">
    <sodipodi:guide
       position="-480.6334,-58.005981"
       orientation="1,0"
       id="guide100"
       inkscape:locked="false" />
  </sodipodi:namedview>
  <defs
     id="defs2" />
  <g
     inkscape:label="Layer 1"
     inkscape:groupmode="layer"
     id="layer1"
     transform="translate(50.554086,-387.53006)"
     style="display:inline">
    <path
       id="text2634"
       style="font-size:25.4px;line-height:1.25;font-family:Arial;-inkscape-font-specification:'Arial, Normal';letter-spacing:0px;word-spacing:0px;fill:#ffffff;stroke:#000000;stroke-width:0.264583;stroke-linejoin:miter;stroke-opacity:1"
       d="m -24.214193,390.14008 v 18.28777 h 3.352766 v -13.41106 l 6.959782,8.25479 6.9339443,-8.25479 v 13.41106 h 3.378088 v -18.28777 h -3.682979 l -6.6290533,7.92458 -6.654891,-7.92458 z m 35.712031,3.35277 v 14.935 h 3.378605 v -14.935 h 7.441923 v -3.35277 H 7.4593255 l -3.4248562,3.33726 z m 22.992908,-3.35277 -3.358448,3.2613 v 0.0915 h 7.467758 v 14.935 h 3.37809 v -14.935 h 7.44192 v -3.35277 z m 20.21272,18.28777 v -7.46776 h 11.98893 v 7.46776 h 3.35277 v -18.22731 l -3.35277,3.25562 v 4.15117 h -11.98893 v -7.39283 l -3.34398,3.24734 0.05,14.975 z m 21.68447,-18.28777 -3.39618,3.29747 v 14.9903 h 16.814481 v -3.35276 H 76.369846 v -4.115 h 10.82053 v -3.35276 h -10.82053 v -4.11448 h 13.436391 v -3.35277 z m 19.006587,0 c -0.982136,0 -1.820306,0.34702 -2.514576,1.04128 -0.67733,0.67733 -1.01596,1.50712 -1.01596,2.48925 v 11.22671 c 0,0.98213 0.33863,1.82031 1.01596,2.51457 0.69427,0.67734 1.53244,1.01596 2.514576,1.01596 h 11.226707 c 0.9652,0 1.79499,-0.33862 2.48926,-1.01596 0.69426,-0.69426 1.04128,-1.53244 1.04128,-2.51457 v -11.22671 c 0,-0.98213 -0.34702,-1.81192 -1.04128,-2.48925 -0.69427,-0.69426 -1.52406,-1.04128 -2.48926,-1.04128 z m 37.515547,0 8.45839,11.45512 v 6.83265 h 3.35277 v -6.83265 l 8.45788,-11.45512 h -4.01319 l -6.12107,7.77214 -6.14691,-7.77214 z m -159.333947,5.2e-4 -3.352767,3.25613 v 15.03112 h 3.352767 z m 29.1589433,0.0232 -3.3527669,3.25562 V 408.4278 H 2.7350663 Z M 112.92059,408.42825 h 3.35277 v -6.27352 h 0.076 5.91798 l 5.2834,6.27352 h 3.65766 v -0.86351 l -4.54649,-5.41001 h 0.99064 c 0.98213,0 1.8203,-0.34753 2.51457,-1.04179 0.69427,-0.69427 1.04128,-1.52406 1.04128,-2.48926 v -4.92734 c 0,-0.9652 -0.34701,-1.79499 -1.04128,-2.48926 -0.69427,-0.69426 -1.53244,-1.04128 -2.51457,-1.04128 h -11.32593 l -3.39462,3.29644 c 0.009,0.14647 -0.0114,13.78494 -0.0114,14.96601 z m -159.385104,-18.22165 -3.352767,3.25561 v 14.96601 h 18.287772 v -3.35276 h -14.935005 z m 141.859037,3.28662 h 11.226707 c 0.1016,0 0.15245,0.0592 0.15245,0.17776 v 11.22671 c 0,0.11853 -0.0508,0.17777 -0.15245,0.17777 H 95.394523 c -0.11854,0 -0.17777,-0.0592 -0.17777,-0.17777 v -11.22671 c 0,-0.11853 0.0592,-0.17776 0.17777,-0.17776 z m 21.056597,0.0253 h 11.20139 c 0.11853,0 0.17776,0.0592 0.17776,0.17777 v 4.92734 c 0,0.11854 -0.0592,0.17777 -0.17776,0.17777 h -11.20139 c -0.11853,0 -0.17776,-0.0592 -0.17776,-0.17777 v -4.92734 c 0,-0.11854 0.0592,-0.17777 0.17776,-0.17777 z"
       sodipodi:nodetypes="cccccccccccccccccccccccccccccccccccccccccccccccccccccccccsccscsscsscsscccccccccccccccccccccccccccccsssssscccccsccccssssssssssssssssssss" />
    <text
       xml:space="preserve"
       style="font-size:16.9333px;line-height:1.25;font-family:Arial;-inkscape-font-specification:'Arial, Normal';letter-spacing:0px;word-spacing:0px;fill:#ffffff;stroke:#000000;stroke-width:0.264583;stroke-opacity:1"
       x="21.431656"
       y="428.88046"
       id="text2688"><tspan
         sodipodi:role="line"
         id="tspan2686"
         style="font-size:16.9333px;fill:#ffffff;stroke:#000000;stroke-width:0.264583;stroke-opacity:1"
         x="21.431656"
         y="428.88046">REDUX</tspan></text>
    <path
       style="color:#000000;fill:#ffffff;stroke:#000000;stroke-width:0.508;stroke-linejoin:miter;stroke-dasharray:none;stroke-opacity:1;paint-order:stroke fill markers"
       d="m 91.927227,422.02081 v 1.05664 h 60.619143 v -1.05664 z"
       id="path1689" />
    <path
       style="color:#000000;fill:#ffffff;stroke:#000000;stroke-width:0.508;stroke-linejoin:miter;stroke-dasharray:none;stroke-opacity:1;paint-order:stroke fill markers"
       d="m -49.184101,422.02081 v 1.05664 H 11.43504 v -1.05664 z"
       id="path944" />
  </g>
</svg>
