<?xml version="1.0" encoding="UTF-8" standalone="no"?>
<!-- Created with Inkscape (http://www.inkscape.org/) -->

<svg
   width="800mm"
   height="800mm"
   viewBox="0 0 800 800"
   version="1.1"
   id="svg257"
   inkscape:version="1.2.2 (732a01da63, 2022-12-09)"
   sodipodi:docname="LTR_Logo.svg"
   xmlns:inkscape="http://www.inkscape.org/namespaces/inkscape"
   xmlns:sodipodi="http://sodipodi.sourceforge.net/DTD/sodipodi-0.dtd"
   xmlns="http://www.w3.org/2000/svg"
   xmlns:svg="http://www.w3.org/2000/svg">
  <sodipodi:namedview
     id="namedview259"
     pagecolor="#505050"
     bordercolor="#eeeeee"
     borderopacity="1"
     inkscape:showpageshadow="0"
     inkscape:pageopacity="0"
     inkscape:pagecheckerboard="0"
     inkscape:deskcolor="#505050"
     inkscape:document-units="mm"
     showgrid="false"
     inkscape:zoom="0.19531951"
     inkscape:cx="1072.6015"
     inkscape:cy="988.12451"
     inkscape:window-width="1920"
     inkscape:window-height="1057"
     inkscape:window-x="-8"
     inkscape:window-y="-8"
     inkscape:window-maximized="1"
     inkscape:current-layer="layer1" />
  <defs
     id="defs254" />
  <g
     inkscape:label="Ebene 1"
     inkscape:groupmode="layer"
     id="layer1"
     transform="translate(7.8705194,-6.7254105)">
    <path
       id="path430-6-2"
       style="font-size:98.4758px;line-height:1.25;font-family:Arial;-inkscape-font-specification:'Arial, Normal';text-align:center;letter-spacing:0px;word-spacing:0px;text-anchor:middle;fill:#ffffff;fill-opacity:1;stroke:#000000;stroke-width:12.1179;stroke-dasharray:none;stroke-opacity:1;paint-order:stroke fill markers"
       d="m 392.09933,16.734381 c -69.50727,0 -134.77236,18.355238 -191.33718,50.351804 A 105.12887,105.12887 0 0 0 131.49437,40.968211 105.12887,105.12887 0 0 0 26.365126,146.09836 105.12887,105.12887 0 0 0 52.475412,215.38024 C 20.483231,271.96268 2.1380962,337.23143 2.1384513,406.74804 c 0,215.07131 174.8882887,389.96895 389.9608787,389.9684 81.85161,0 157.86217,-25.39526 220.66312,-68.63135 a 72.781525,72.781525 0 0 0 39.97887,12.03757 72.781525,72.781525 0 0 0 72.77769,-72.77771 72.781525,72.781525 0 0 0 -11.99193,-40.0091 c 43.22915,-62.77401 68.59343,-138.75874 68.59343,-220.58781 0,-215.07112 -174.95024,-390.013659 -390.02118,-390.013659 z m 0,54.785489 c 185.46482,0 335.23569,149.76279 335.23569,335.22817 0,70.45375 -21.65552,135.72012 -58.62858,189.60476 a 72.781525,72.781525 0 0 0 -15.96512,-1.78482 72.781525,72.781525 0 0 0 -72.79256,72.77789 72.781525,72.781525 0 0 0 1.92925,15.85829 c -53.93285,37.02857 -119.25198,58.72001 -189.77868,58.72001 -185.4661,5.5e-4 -335.258572,-149.70964 -335.258572,-335.17521 0,-58.49498 14.940024,-113.40143 41.159338,-161.21708 a 105.12887,105.12887 0 0 0 33.494274,5.69736 105.12887,105.12887 0 0 0 105.12318,-105.12997 105.12887,105.12887 0 0 0 -5.6904,-33.47227 C 278.72558,86.433883 333.6333,71.520615 392.09933,71.520794 Z"
       inkscape:export-filename="blackoutline_revamp.png"
       inkscape:export-xdpi="600"
       inkscape:export-ydpi="600" />
    <path
       style="font-size:98.4758px;line-height:1.25;font-family:Arial;-inkscape-font-specification:'Arial, Normal';text-align:center;letter-spacing:0px;word-spacing:0px;text-anchor:middle;fill:#ffffff;fill-opacity:1;stroke:#000000;stroke-width:12.3759;stroke-dasharray:none;stroke-opacity:1;paint-order:stroke fill markers"
       d="M 534.01613,412.89651 A 134.3199,134.3199 0 0 1 415.137,531.65286 v 99.51236 A 233.5998,233.5998 0 0 0 633.61999,412.89651 Z"
       id="path438-3-9" />
    <path
       style="font-size:98.4758px;line-height:1.25;font-family:Arial;-inkscape-font-specification:'Arial, Normal';text-align:center;letter-spacing:0px;word-spacing:0px;text-anchor:middle;fill:#ffffff;fill-opacity:1;stroke:#000000;stroke-width:12.3759;stroke-dasharray:none;stroke-opacity:1;paint-order:stroke fill markers"
       d="M 167.68855,412.89651 A 233.5998,233.5998 0 0 0 385.94153,631.13452 V 531.74476 A 134.3199,134.3199 0 0 1 267.20146,412.89651 Z"
       id="path440-9-6" />
    <path
       style="font-size:98.4758px;line-height:1.25;font-family:Arial;-inkscape-font-specification:'Arial, Normal';text-align:center;letter-spacing:0px;word-spacing:0px;text-anchor:middle;fill:#ffffff;fill-opacity:1;stroke:#000000;stroke-width:12.3759;stroke-dasharray:none;stroke-opacity:1;paint-order:stroke fill markers"
       d="m 415.137,165.44787 v 99.38976 a 134.3199,134.3199 0 0 1 118.77246,118.86359 h 99.51121 A 233.5998,233.5998 0 0 0 415.137,165.44787 Z"
       id="path442-5-7" />
    <path
       style="font-size:98.4758px;line-height:1.25;font-family:Arial;-inkscape-font-specification:'Arial, Normal';text-align:center;letter-spacing:0px;word-spacing:0px;text-anchor:middle;fill:#ffffff;fill-opacity:1;stroke:#000000;stroke-width:12.3759;stroke-dasharray:none;stroke-opacity:1;paint-order:stroke fill markers"
       d="m 385.94153,165.41624 a 233.5998,233.5998 0 0 0 -218.49758,218.2687 h 99.63492 A 134.3199,134.3199 0 0 1 385.94153,264.9284 Z"
       id="path444-0-4" />
  </g>
</svg>
